<svg xmlns="http://www.w3.org/2000/svg" viewBox="0 0 1024 1024" role="img" aria-label="ORION maskable app icon">
  <title>ORION maskable app icon (mark inside the 80% safe zone)</title>
  <defs><radialGradient id="sp" cx="0.5" cy="0.5" r="0.78">
      <stop offset="0" stop-color="#12121e"/><stop offset="1" stop-color="#0a0a12"/>
    </radialGradient><linearGradient id="g" x1="0" y1="0" x2="0.35" y2="1">
      <stop offset="0" stop-color="#ffee88"/><stop offset="0.55" stop-color="#ffd700"/><stop offset="1" stop-color="#cc8800"/>
    </linearGradient><radialGradient id="c" cx="0.38" cy="0.34" r="0.8">
      <stop offset="0" stop-color="#ff4455"/><stop offset="1" stop-color="#c41e3a"/>
    </radialGradient><filter id="glow" x="-60%" y="-60%" width="220%" height="220%">
      <feGaussianBlur stdDeviation="10" result="b"/><feMerge><feMergeNode in="b"/><feMergeNode in="SourceGraphic"/></feMerge>
    </filter></defs>
  <rect width="1024" height="1024" fill="url(#sp)"/>
  <g><circle cx="244.5" cy="935.4" r="2.09" fill="#fff7e0" opacity="0.64"/><circle cx="50.5" cy="876.3" r="1.44" fill="#fff7e0" opacity="0.21"/><circle cx="70.4" cy="1007.6" r="3.03" fill="#fff7e0" opacity="0.45"/><circle cx="462.7" cy="561" r="2.07" fill="#fff7e0" opacity="0.57"/><circle cx="798.5" cy="428.1" r="1.73" fill="#fff7e0" opacity="0.61"/><circle cx="371.2" cy="493.1" r="0.74" fill="#fff7e0" opacity="0.55"/><circle cx="854.2" cy="366.7" r="0.97" fill="#fff7e0" opacity="0.67"/><circle cx="125" cy="465.7" r="1.69" fill="#fff7e0" opacity="0.23"/><circle cx="116.8" cy="636.5" r="2.51" fill="#fff7e0" opacity="0.22"/><circle cx="620.1" cy="948.6" r="1.19" fill="#fff7e0" opacity="0.48"/><circle cx="361.2" cy="320.3" r="1.83" fill="#fff7e0" opacity="0.54"/><circle cx="317.2" cy="162" r="2.77" fill="#fff7e0" opacity="0.49"/><circle cx="388.4" cy="1020.3" r="1.76" fill="#fff7e0" opacity="0.27"/><circle cx="259.8" cy="942.8" r="2.03" fill="#fff7e0" opacity="0.43"/><circle cx="179.1" cy="444.4" r="0.96" fill="#fff7e0" opacity="0.18"/><circle cx="708.2" cy="778.3" r="0.88" fill="#fff7e0" opacity="0.45"/><circle cx="759.7" cy="904" r="1.47" fill="#fff7e0" opacity="0.38"/><circle cx="653.7" cy="848.5" r="1.81" fill="#fff7e0" opacity="0.42"/><circle cx="804.6" cy="980.2" r="1.34" fill="#fff7e0" opacity="0.62"/><circle cx="212.1" cy="283.9" r="2.97" fill="#fff7e0" opacity="0.54"/><circle cx="213.8" cy="53.4" r="1.26" fill="#fff7e0" opacity="0.59"/><circle cx="778.2" cy="215.7" r="1.82" fill="#fff7e0" opacity="0.56"/><circle cx="427.3" cy="337.8" r="1.42" fill="#fff7e0" opacity="0.28"/><circle cx="891.7" cy="209.4" r="2.27" fill="#fff7e0" opacity="0.53"/><circle cx="450.9" cy="275" r="1.86" fill="#fff7e0" opacity="0.35"/><circle cx="102.9" cy="395.2" r="1.71" fill="#fff7e0" opacity="0.56"/><circle cx="882.1" cy="792.4" r="1.1" fill="#fff7e0" opacity="0.52"/><circle cx="599.1" cy="78" r="2.43" fill="#fff7e0" opacity="0.59"/><circle cx="576.3" cy="872.6" r="0.65" fill="#fff7e0" opacity="0.55"/><circle cx="446.1" cy="1019" r="2.87" fill="#fff7e0" opacity="0.28"/><circle cx="288.6" cy="868.1" r="2.61" fill="#fff7e0" opacity="0.67"/><circle cx="975.1" cy="30.1" r="2.8" fill="#fff7e0" opacity="0.3"/><circle cx="1004.1" cy="246.7" r="2.9" fill="#fff7e0" opacity="0.6"/><circle cx="663.4" cy="575.8" r="1.47" fill="#fff7e0" opacity="0.27"/><circle cx="27.6" cy="10" r="0.85" fill="#fff7e0" opacity="0.56"/><circle cx="89.7" cy="375.2" r="1.78" fill="#fff7e0" opacity="0.68"/><circle cx="193.6" cy="567" r="1.82" fill="#fff7e0" opacity="0.38"/><circle cx="551.1" cy="59.7" r="2.26" fill="#fff7e0" opacity="0.3"/><circle cx="452.6" cy="184.3" r="2.44" fill="#fff7e0" opacity="0.55"/><circle cx="441.9" cy="119.6" r="2.87" fill="#fff7e0" opacity="0.22"/><circle cx="600.9" cy="156.1" r="2.7" fill="#fff7e0" opacity="0.37"/><circle cx="654.8" cy="473.5" r="1.2" fill="#fff7e0" opacity="0.35"/><circle cx="698.4" cy="310.2" r="0.54" fill="#fff7e0" opacity="0.57"/><circle cx="575.6" cy="614.7" r="2.48" fill="#fff7e0" opacity="0.45"/><circle cx="295.2" cy="209.8" r="2.98" fill="#fff7e0" opacity="0.58"/><circle cx="28.8" cy="333.1" r="1.85" fill="#fff7e0" opacity="0.21"/><circle cx="536.8" cy="931.7" r="1.61" fill="#fff7e0" opacity="0.64"/><circle cx="7.8" cy="1013" r="1.14" fill="#fff7e0" opacity="0.4"/><circle cx="958.8" cy="252.5" r="0.85" fill="#fff7e0" opacity="0.65"/><circle cx="140.7" cy="339.3" r="0.59" fill="#fff7e0" opacity="0.45"/><circle cx="184.4" cy="698.1" r="2.9" fill="#fff7e0" opacity="0.4"/><circle cx="60.4" cy="891.7" r="1.68" fill="#fff7e0" opacity="0.19"/><circle cx="526.8" cy="762" r="1.25" fill="#fff7e0" opacity="0.38"/><circle cx="582.8" cy="882.2" r="3.03" fill="#fff7e0" opacity="0.49"/><circle cx="110.9" cy="11.4" r="1.01" fill="#fff7e0" opacity="0.65"/><circle cx="596.4" cy="829.4" r="2.3" fill="#fff7e0" opacity="0.55"/><circle cx="163.5" cy="672.9" r="1.09" fill="#fff7e0" opacity="0.21"/><circle cx="928.7" cy="568.5" r="1.46" fill="#fff7e0" opacity="0.61"/><circle cx="847.1" cy="578.7" r="0.51" fill="#fff7e0" opacity="0.38"/><circle cx="851.8" cy="933.3" r="2.54" fill="#fff7e0" opacity="0.32"/><circle cx="998.1" cy="0.8" r="3.05" fill="#fff7e0" opacity="0.3"/><circle cx="540.8" cy="894.1" r="1.58" fill="#fff7e0" opacity="0.5"/><circle cx="744.6" cy="868.4" r="1.76" fill="#fff7e0" opacity="0.31"/><circle cx="267.4" cy="391.9" r="1.51" fill="#fff7e0" opacity="0.54"/><circle cx="860.7" cy="418.4" r="0.81" fill="#fff7e0" opacity="0.54"/><circle cx="426.5" cy="676" r="2.59" fill="#fff7e0" opacity="0.27"/><circle cx="904.1" cy="781.3" r="1.71" fill="#fff7e0" opacity="0.39"/><circle cx="345.3" cy="98.5" r="1.31" fill="#fff7e0" opacity="0.4"/><circle cx="234.6" cy="711.3" r="0.68" fill="#fff7e0" opacity="0.6"/><circle cx="998.3" cy="724" r="0.59" fill="#fff7e0" opacity="0.48"/><circle cx="887.4" cy="179.8" r="2.54" fill="#fff7e0" opacity="0.36"/><circle cx="360.4" cy="155.6" r="2.59" fill="#fff7e0" opacity="0.36"/><circle cx="15.9" cy="426.2" r="1.55" fill="#fff7e0" opacity="0.43"/><circle cx="857.7" cy="321.1" r="2.33" fill="#fff7e0" opacity="0.22"/><circle cx="573.1" cy="487" r="2.06" fill="#fff7e0" opacity="0.28"/><circle cx="240.7" cy="450.6" r="2.86" fill="#fff7e0" opacity="0.61"/><circle cx="297.9" cy="446.6" r="0.97" fill="#fff7e0" opacity="0.3"/><circle cx="699" cy="871.1" r="2.72" fill="#fff7e0" opacity="0.56"/><circle cx="989" cy="143" r="2.28" fill="#fff7e0" opacity="0.54"/><circle cx="375" cy="207.8" r="2.4" fill="#fff7e0" opacity="0.65"/><circle cx="178.8" cy="497.4" r="1.13" fill="#fff7e0" opacity="0.38"/><circle cx="45.9" cy="330.8" r="1.16" fill="#fff7e0" opacity="0.66"/><circle cx="23.7" cy="300.9" r="2.51" fill="#fff7e0" opacity="0.42"/><circle cx="397.4" cy="612.6" r="2.54" fill="#fff7e0" opacity="0.27"/><circle cx="641.8" cy="744" r="1.86" fill="#fff7e0" opacity="0.2"/><circle cx="130.6" cy="954.3" r="2.4" fill="#fff7e0" opacity="0.25"/><circle cx="427" cy="282.8" r="2.69" fill="#fff7e0" opacity="0.6"/><circle cx="18.9" cy="267.5" r="1.25" fill="#fff7e0" opacity="0.65"/><circle cx="267" cy="321.1" r="1.47" fill="#fff7e0" opacity="0.2"/><circle cx="630.7" cy="652.4" r="1.73" fill="#fff7e0" opacity="0.67"/></g>
  <g transform="translate(266,266) scale(4.92)" filter="url(#glow)"><g fill="none" stroke="url(#g)" stroke-width="10">
      <path d="M26.71 21.25 A37 37 0 0 1 73.29 21.25"/>
      <path d="M78.75 26.71 A37 37 0 0 1 78.75 73.29"/>
      <path d="M73.29 78.75 A37 37 0 0 1 26.71 78.75"/>
      <path d="M21.25 73.29 A37 37 0 0 1 21.25 26.71"/>
    </g>
    <circle cx="50" cy="50" r="15" fill="url(#c)"/></g>
</svg>
